<svg xmlns="http://www.w3.org/2000/svg" width="25" height="25" viewBox="0 0 25 25">
    <defs>
        <linearGradient id="prefix__a" x1="50%" x2="50%" y1="0%" y2="100%">
            <stop offset="0%" stop-color="red"/>
            <stop offset="100%" stop-color="#FFB941"/>
        </linearGradient>
    </defs>
    <path fill="url(#prefix__a)" d="M12.5 0C5.592 0 0 5.59 0 12.5 0 19.408 5.59 25 12.5 25 19.408 25 25 19.41 25 12.5 25 5.592 19.41 0 12.5 0zm8.855 11.81c.146.507-.157 1.038-.675 1.187-.519.148-1.057-.142-1.202-.649l-.365-1.271-2.45 4.303c-.263.464-.858.634-1.327.38l-5.56-2.999-3.126 5.49c-.264.464-1.075-.124-1.545-.377-.469-.253-.635-.834-.372-1.298l3.604-6.329c.264-.463.858-.634 1.327-.38l5.56 2.999 1.972-3.464-1.3.373c-.519.148-1.057-.142-1.202-.649-.146-.506.157-1.038.675-1.186l3.567-1.023c.527-.151 1.06.152 1.202.648l1.217 4.245z"/>
</svg>
