<?xml version="1.0" encoding="UTF-8"?>
<svg width="516px" height="162px" viewBox="0 0 516 162" version="1.1" xmlns="http://www.w3.org/2000/svg" xmlns:xlink="http://www.w3.org/1999/xlink">
    <!-- Generator: Sketch 64 (93537) - https://sketch.com -->
    <title>Group 13 Copy 2</title>
    <desc>Created with Sketch.</desc>
    <defs>
        <polygon id="path-1" points="0 0.832 321.5999 0.832 321.5999 168.9996 0 168.9996"></polygon>
    </defs>
    <g id="Page-1" stroke="none" stroke-width="1" fill="none" fill-rule="evenodd">
        <g id="logo-zalo-appp" transform="translate(-38.000000, -737.000000)">
            <g id="Group-Copy-5" transform="translate(34.000000, 733.000000)">
                <g id="Group-13-Copy-2">
                    <g id="Group-26-Copy">
                        <g id="Group-3" transform="translate(0.000000, 0.168000)">
                            <mask id="mask-2" fill="white">
                                <use xlink:href="#path-1"></use>
                            </mask>
                            <g id="Clip-2"></g>
                        </g>
                        <path d="M105.4631,107.9072 C105.8851,111.5972 107.2701,114.9552 109.5211,117.6902 C112.6191,121.4442 117.1921,123.5112 122.4241,123.5112 C127.6131,123.5112 132.1951,121.4442 135.2961,117.6902 C138.0591,114.3532 139.5361,110.0952 139.5361,105.4262 L139.5361,58.7782 C139.5361,54.8302 138.4511,51.2242 136.3381,48.0552 C135.6781,47.0522 135.7051,45.7252 136.4331,44.7942 C138.7961,41.7242 140.0041,38.2342 140.0041,34.4392 C140.0041,29.8052 138.2541,25.6192 135.0021,22.3342 C131.7221,19.0652 127.5201,17.3242 122.8921,17.3242 C118.2301,17.3242 114.0451,19.0542 110.7731,22.3342 L110.7551,22.3342 C107.5021,25.6192 105.7631,29.8052 105.7631,34.4392 C105.7631,38.0492 106.8061,41.3382 108.8841,44.2742 C109.2301,44.7552 109.3841,45.3022 109.3841,45.8742 C109.3841,46.4392 109.2041,47.0162 108.8421,47.4912 C106.5311,50.7272 105.2961,54.6272 105.2961,58.7782 L105.2961,103.1012 C105.4351,104.1742 105.5251,105.2642 105.5251,106.3942 C105.5251,106.8982 105.4981,107.4172 105.4631,107.9072" id="Fill-4" fill="#FEFEFE"></path>
                        <path d="M211.7761,48.7378 C205.8051,42.9278 197.9381,39.9828 188.4241,39.9828 C183.1811,39.9828 178.4681,40.9128 174.4791,42.7328 C173.6991,43.0718 172.7761,43.0668 172.0121,42.6508 C169.5471,41.3488 166.7341,40.6948 163.6301,40.6948 C158.4101,40.6948 153.8391,42.7628 150.7171,46.5388 C147.9471,49.8808 146.4851,54.1018 146.4851,58.7788 L146.4851,105.4258 C146.4851,110.0958 147.9471,114.3248 150.7251,117.6908 C153.7991,121.4448 158.4101,123.5108 163.6091,123.5108 C168.8291,123.5108 173.4281,121.4448 176.5311,117.6688 C179.2731,114.3248 180.7211,110.0958 180.7211,105.4258 L180.7211,74.8118 L180.8221,73.6558 C180.9151,72.1438 182.0511,71.2248 183.5681,71.2818 L183.9681,71.3108 C185.4061,71.3858 186.5001,72.3298 186.5711,73.7668 L186.6351,74.8118 L186.6351,105.4258 C186.6351,110.0878 188.0951,114.3248 190.8551,117.6688 C193.9591,121.4448 198.5431,123.5108 203.7521,123.5108 C208.9901,123.5108 213.5531,121.4448 216.6491,117.6908 C219.4231,114.3248 220.8821,110.0878 220.8821,105.4258 L220.8821,89.2998 C220.6471,87.0298 220.4971,84.7438 220.4971,82.3418 C220.4971,80.1538 220.6471,77.9898 220.8821,75.8838 L220.8821,71.9228 C220.8821,62.4008 217.8071,54.6058 211.7761,48.7378" id="Fill-6" fill="#FEFEFE"></path>
                        <path d="M240.1374,116.7959 C240.7634,117.3319 241.1274,118.1119 241.1274,118.9279 C241.1274,119.1069 241.1144,119.2879 241.0714,119.4489 C240.9064,120.4579 240.1954,121.2659 239.2334,121.5729 C232.9404,123.6759 228.3914,130.0979 228.3914,136.8659 C228.3914,145.5229 235.2994,152.8169 243.4514,152.8169 L263.0754,152.8169 C275.5894,152.8169 285.6874,149.4779 293.1104,142.8839 C302.0634,134.8389 305.2454,120.3079 305.2454,109.3659 L305.2454,58.7779 C305.2454,54.1159 303.8084,49.8799 301.0404,46.5319 C297.9374,42.7629 293.3604,40.6939 288.1474,40.6939 C284.8934,40.6939 281.9534,41.4189 279.3764,42.8589 C278.5654,43.3259 277.5994,43.3369 276.7624,42.9209 C272.9184,40.9859 268.4034,39.9829 263.3614,39.9829 C252.0194,39.9829 242.3084,44.7549 235.3424,53.8009 L235.3274,53.8299 C230.3794,60.3089 227.4114,67.8249 226.4464,76.2159 L226.4464,89.0569 C227.3624,97.1269 229.8574,104.1919 234.0304,110.0879 C235.7504,112.5879 237.8024,114.8399 240.1374,116.7959" id="Fill-8" fill="#FEFEFE"></path>
                        <path d="M82.8215,89.9863 L69.3875,89.9863 C68.3425,89.9863 67.3855,89.4033 66.9175,88.4693 C66.4325,87.5333 66.5255,86.4073 67.1295,85.5593 C67.1295,85.5593 93.3605,49.2433 93.3415,49.2533 C96.1175,45.3283 97.5305,41.0933 97.5305,36.6793 C97.5305,31.2833 95.3215,26.6223 91.3385,23.5583 C87.9645,20.9443 83.6755,19.5713 78.9345,19.5713 L34.4295,19.5713 C29.9365,19.5713 25.8645,21.1943 22.6405,24.2623 C19.3095,27.4323 17.5605,31.5693 17.5605,36.2393 C17.5605,41.0793 19.4755,45.3853 22.9545,48.3163 C26.0795,50.9863 30.0565,52.3803 34.4295,52.3803 L44.5725,52.3803 C45.6225,52.3803 46.5795,52.9733 47.0485,53.9083 C47.5405,54.8303 47.4505,55.9573 46.8505,56.8113 C46.8505,56.8113 20.2735,93.8983 20.2845,93.8693 C19.4295,95.1023 18.7145,96.3373 18.1955,97.5313 L18.1175,97.6673 C16.9485,100.4053 16.3555,103.1163 16.3555,105.7013 C16.3555,111.0323 18.5665,115.6663 22.5925,118.7883 C26.0065,121.4203 30.2675,122.8103 34.9375,122.8103 L82.8215,122.8103 C87.1175,122.8103 91.1245,121.3303 94.4335,118.4333 C97.5385,115.7233 99.4465,112.1473 99.8575,108.1293 C99.7655,107.2423 99.7195,106.3553 99.7195,105.4253 L99.7195,103.3733 C98.4825,95.1493 92.1425,89.9863 82.8215,89.9863" id="Fill-10" fill="#FEFEFE"></path>
                        <path d="M114.1291,34.4389 C114.1291,32.0269 114.9831,29.9569 116.6801,28.2639 C118.3831,26.5569 120.4491,25.6889 122.8921,25.6889 C125.3011,25.6889 127.3801,26.5569 129.0791,28.2639 C130.7791,29.9569 131.6231,32.0269 131.6231,34.4389 C131.6231,36.8809 130.7791,38.9369 129.0791,40.6389 C127.3801,42.3469 125.3011,43.1969 122.8921,43.1969 C120.4491,43.1969 118.3831,42.3469 116.6801,40.6389 C114.9831,38.9369 114.1291,36.8809 114.1291,34.4389 M113.6661,105.4259 L113.6661,58.7779 C113.6661,56.0249 114.4221,53.7149 115.9751,51.8649 C117.5121,49.9979 119.6501,49.0559 122.4241,49.0559 C125.1621,49.0559 127.3101,49.9979 128.8451,51.8649 C130.3871,53.7149 131.1641,56.0249 131.1641,58.7779 L131.1641,105.4259 C131.1641,108.1759 130.3871,110.4849 128.8451,112.3619 C127.3101,114.2289 125.1621,115.1509 122.4241,115.1509 C119.6501,115.1509 117.5121,114.2289 115.9751,112.3619 C114.4221,110.4849 113.6661,108.1759 113.6661,105.4259" id="Fill-12" fill="#49A942"></path>
                        <path d="M154.8679,105.4258 L154.8679,58.7788 C154.8679,56.0248 155.6349,53.7158 157.1759,51.8648 C158.7119,49.9978 160.8549,49.0558 163.6299,49.0558 C168.1609,49.0558 170.8389,51.1778 171.6609,55.3668 C175.1299,50.7078 180.7219,48.3538 188.4239,48.3538 C195.7249,48.3538 201.5599,50.4688 205.9439,54.7128 C210.3089,58.9788 212.5169,64.7208 212.5169,71.9228 L212.5169,105.4258 C212.5169,108.1938 211.7299,110.4858 210.1999,112.3628 C208.6549,114.2288 206.5129,115.1518 203.7519,115.1518 C201.0169,115.1518 198.8719,114.2288 197.3189,112.3628 C195.7759,110.4858 195.0139,108.1758 195.0139,105.4258 L195.0139,74.8118 C195.0139,71.1818 194.0019,68.2678 192.0419,66.1338 C190.0399,63.9988 187.2189,62.9008 183.5679,62.9008 C180.0779,62.9008 177.3259,64.0278 175.3409,66.2688 C173.3519,68.4898 172.3549,71.3428 172.3549,74.8118 L172.3549,105.4258 C172.3549,108.1758 171.6039,110.4858 170.0339,112.3628 C168.5209,114.2288 166.3589,115.1518 163.6089,115.1518 C160.8549,115.1518 158.6999,114.2288 157.1759,112.3628 C155.6349,110.4858 154.8679,108.1758 154.8679,105.4258" id="Fill-14" fill="#F37A20"></path>
                        <path d="M279.4011,82.5849 C279.4011,77.8289 278.3071,73.7389 276.1191,70.3629 C273.6161,66.4299 270.0761,64.4389 265.5351,64.4389 C261.2521,64.4389 257.8331,66.3229 255.3341,70.1419 C253.0711,73.5169 251.9401,77.4389 251.9401,81.8699 C251.9401,86.6209 252.9771,90.6509 255.0901,93.9699 C257.5291,97.8309 261.0151,99.7699 265.5351,99.7699 C270.0761,99.7699 273.6161,97.9449 276.1191,94.3269 C278.3071,91.1839 279.4011,87.2749 279.4011,82.5849 L279.4011,82.5849 Z M243.4521,144.4499 C239.8121,144.4499 236.7691,140.8099 236.7691,136.8659 C236.7691,132.9219 240.3481,129.2929 243.2881,129.2929 L263.0751,129.2929 C267.5451,129.2929 272.6221,128.0519 275.3331,125.6209 C278.0391,123.1529 279.4011,116.1889 279.4011,111.7829 L279.4011,107.6489 C275.4431,113.1089 269.4361,115.8559 261.4161,115.8559 C252.5881,115.8559 245.7551,112.3259 240.8841,105.2899 C236.5761,99.2299 234.4341,91.5809 234.4341,82.3419 C234.4341,73.2809 236.9551,65.4789 241.9791,58.9279 C247.3991,51.8789 254.5221,48.3539 263.3611,48.3539 C270.7231,48.3539 276.0901,51.0189 279.4011,56.3289 C280.4451,51.4819 283.3671,49.0559 288.1471,49.0559 C290.8931,49.0559 293.0491,49.9979 294.5761,51.8649 C296.1211,53.7149 296.8791,56.0389 296.8791,58.7779 L296.8791,109.3659 C296.8791,119.5569 293.7611,131.0339 287.5471,136.6339 C281.6111,141.8829 273.4521,144.4499 263.0751,144.4499 L243.4521,144.4499 Z" id="Fill-16" fill="#ED2B74"></path>
                        <path d="M47.5759,98.3535 L82.8219,98.3535 C88.6589,98.3535 91.5759,101.0595 91.5759,106.3945 C91.5759,108.6715 90.6879,110.5885 88.9239,112.1475 C87.1349,113.6775 85.1089,114.4505 82.8219,114.4505 L34.9379,114.4505 C32.0919,114.4505 29.6799,113.6775 27.6919,112.1475 C25.7009,110.5995 24.7209,108.4515 24.7209,105.7015 C24.7209,104.2245 25.0679,102.6725 25.8059,100.9625 C26.1389,100.2345 26.5879,99.4755 27.1429,98.6535 L66.2989,44.0055 L34.4299,44.0055 C32.0189,44.0055 29.9839,43.3265 28.3679,41.9245 C26.7399,40.5735 25.9399,38.6525 25.9399,36.2395 C25.9399,33.8755 26.7579,31.8915 28.4379,30.3255 C30.0859,28.7345 32.0919,27.9205 34.4299,27.9205 L78.9339,27.9205 C81.8439,27.9205 84.2989,28.6765 86.2299,30.1785 C88.1719,31.6765 89.1379,33.8365 89.1379,36.6795 C89.1379,39.3575 88.2599,41.9245 86.5009,44.4395 L47.5759,98.3535 Z" id="Fill-18" fill="#009CDB"></path>
                        <path d="M103.3474,45.874 C101.0124,49.707 99.7204,54.116 99.7204,58.778 L99.7204,91.109 C95.6934,86.896 89.8164,84.416 82.8214,84.416 L74.8574,84.416 C79.7604,77.582 97.9004,52.508 97.9004,52.508 C99.9044,49.639 101.3164,46.645 102.1754,43.52 C102.5234,44.312 102.9074,45.108 103.3474,45.874 L103.3474,45.874 Z M99.8574,108.129 C99.4464,112.147 97.5384,115.724 94.4334,118.434 C91.1244,121.33 87.1174,122.811 82.8214,122.811 L34.9374,122.811 C30.2674,122.811 26.0064,121.42 22.5924,118.788 C18.5664,115.666 16.3554,111.032 16.3554,105.701 C16.3554,103.116 16.9494,100.405 18.1174,97.667 L18.1954,97.531 C18.7144,96.337 19.4304,95.103 20.2844,93.869 C20.2734,93.898 46.8504,56.812 46.8504,56.812 C47.4514,55.957 47.5404,54.831 47.0484,53.908 C46.5794,52.973 45.6224,52.38 44.5734,52.38 L34.4304,52.38 C30.0564,52.38 26.0794,50.987 22.9544,48.316 C19.4754,45.386 17.5604,41.079 17.5604,36.239 C17.5604,31.569 19.3094,27.433 22.6404,24.263 C25.8654,21.195 29.9364,19.572 34.4304,19.572 L78.9344,19.572 C83.6754,19.572 87.9644,20.945 91.3384,23.559 C95.3224,26.623 97.5314,31.284 97.5314,36.679 C97.5314,41.093 96.1174,45.329 93.3414,49.253 C93.3604,49.244 67.1294,85.56 67.1294,85.56 C66.5254,86.407 66.4324,87.533 66.9174,88.47 C67.3854,89.403 68.3424,89.986 69.3884,89.986 L82.8214,89.986 C92.1424,89.986 98.4824,95.149 99.7204,103.373 C99.8574,104.346 99.9604,105.351 99.9604,106.395 C99.9604,106.984 99.9174,107.561 99.8574,108.129 L99.8574,108.129 Z M122.4244,123.511 C117.1914,123.511 112.6184,121.444 109.5204,117.69 C107.2694,114.955 105.8854,111.598 105.4634,107.907 C105.4974,107.417 105.5254,106.898 105.5254,106.395 C105.5254,105.265 105.4354,104.174 105.2964,103.102 L105.2964,58.778 C105.2964,54.627 106.5314,50.728 108.8424,47.492 C109.2044,47.016 109.3844,46.439 109.3844,45.874 C109.3844,45.302 109.2304,44.755 108.8844,44.274 C106.8064,41.338 105.7634,38.049 105.7634,34.439 C105.7634,29.805 107.5014,25.62 110.7554,22.334 L110.7734,22.334 C114.0454,19.055 118.2304,17.324 122.8914,17.324 C127.5194,17.324 131.7224,19.065 135.0014,22.334 C138.2544,25.62 140.0044,29.805 140.0044,34.439 C140.0044,38.234 138.7964,41.725 136.4324,44.794 C135.7044,45.726 135.6784,47.052 136.3384,48.055 C138.4514,51.225 139.5364,54.831 139.5364,58.778 L139.5364,105.426 C139.5364,110.096 138.0594,114.353 135.2964,117.69 C132.1954,121.444 127.6134,123.511 122.4244,123.511 L122.4244,123.511 Z M220.8824,105.426 C220.8824,110.088 219.4234,114.325 216.6494,117.69 C213.5534,121.444 208.9904,123.511 203.7514,123.511 C198.5424,123.511 193.9584,121.444 190.8554,117.669 C188.0954,114.325 186.6354,110.088 186.6354,105.426 L186.6354,74.811 L186.5714,73.767 C186.5004,72.33 185.4064,71.386 183.9684,71.311 L183.5684,71.282 C182.0514,71.225 180.9144,72.144 180.8224,73.656 L180.7214,74.811 L180.7214,105.426 C180.7214,110.096 179.2734,114.325 176.5314,117.669 C173.4284,121.444 168.8294,123.511 163.6084,123.511 C158.4104,123.511 153.7994,121.444 150.7244,117.69 C147.9474,114.325 146.4854,110.096 146.4854,105.426 L146.4854,58.778 C146.4854,54.102 147.9474,49.88 150.7174,46.539 C153.8394,42.763 158.4104,40.694 163.6294,40.694 C166.7344,40.694 169.5474,41.349 172.0124,42.65 C172.7764,43.067 173.6994,43.072 174.4784,42.732 C178.4684,40.913 183.1814,39.983 188.4244,39.983 C197.9384,39.983 205.8054,42.928 211.7764,48.738 C217.8074,54.605 220.8824,62.4 220.8824,71.922 L220.8824,75.884 C220.6474,77.99 220.4964,80.153 220.4964,82.342 C220.4964,84.744 220.6474,87.029 220.8824,89.3 L220.8824,105.426 Z M305.2454,109.366 C305.2454,120.308 302.0634,134.839 293.1104,142.884 C285.6874,149.478 275.5894,152.816 263.0754,152.816 L243.4514,152.816 C235.2994,152.816 228.3914,145.522 228.3914,136.866 C228.3914,130.098 232.9404,123.676 239.2334,121.573 C240.1954,121.266 240.9064,120.458 241.0714,119.449 C241.1144,119.288 241.1274,119.106 241.1274,118.928 C241.1274,118.112 240.7634,117.332 240.1374,116.796 C237.8024,114.84 235.7504,112.588 234.0304,110.088 C229.8574,104.192 227.3624,97.127 226.4464,89.057 C226.2064,86.883 226.0674,84.659 226.0674,82.342 C226.0674,80.235 226.2064,78.201 226.4464,76.216 C227.4114,67.825 230.3794,60.309 235.3274,53.83 L235.3424,53.801 C242.3084,44.755 252.0194,39.983 263.3614,39.983 C268.4034,39.983 272.9184,40.986 276.7624,42.92 C277.5994,43.337 278.5654,43.326 279.3764,42.859 C281.9534,41.418 284.8934,40.694 288.1474,40.694 C293.3604,40.694 297.9374,42.763 301.0404,46.532 C303.8084,49.88 305.2454,54.116 305.2454,58.778 L305.2454,109.366 Z M305.3534,42.997 C301.1624,37.913 295.0554,35.104 288.1474,35.104 C284.4574,35.104 281.0534,35.893 277.9634,37.403 C273.6304,35.438 268.7434,34.398 263.3614,34.398 C250.2094,34.398 238.9824,39.924 230.9374,50.408 L230.8944,50.442 C228.4924,53.572 226.5214,56.919 224.9694,60.452 C223.2924,54.398 220.1744,49.121 215.6764,44.728 C208.6114,37.888 199.4304,34.398 188.4244,34.398 C182.8784,34.398 177.8464,35.365 173.4064,37.174 C170.4424,35.832 167.1564,35.104 163.6294,35.104 C156.7144,35.104 150.5854,37.913 146.4124,42.997 C144.9764,44.705 143.8044,46.645 142.9434,48.695 C142.6114,47.992 142.2924,47.288 141.8904,46.602 C144.2684,42.928 145.5794,38.803 145.5794,34.439 C145.5794,28.271 143.2914,22.727 138.9514,18.388 C134.6014,14.053 129.0314,11.752 122.8914,11.752 C116.7264,11.752 111.1634,14.053 106.8224,18.388 L106.8064,18.415 C104.1674,21.025 102.3004,24.114 101.2584,27.509 C99.8294,24.238 97.6564,21.374 94.7564,19.135 C90.3764,15.769 84.9064,13.994 78.9344,13.994 L34.4304,13.994 C28.4754,13.994 23.0644,16.15 18.7954,20.219 C14.3354,24.468 11.9844,29.998 11.9844,36.239 C11.9844,42.75 14.5924,48.536 19.3384,52.585 C23.4724,56.103 28.7094,57.959 34.4304,57.959 L39.1344,57.959 C34.2194,64.814 15.7224,90.634 15.7224,90.634 C14.6594,92.188 13.7594,93.727 13.0664,95.271 C13.0604,95.313 13.0074,95.464 13.0074,95.464 C11.5334,98.907 10.7574,102.351 10.7574,105.701 C10.7574,112.795 13.7594,119.023 19.1844,123.196 C23.5584,126.594 29.0194,128.399 34.9374,128.399 L82.8214,128.399 C88.4924,128.399 93.7634,126.414 98.0644,122.639 C99.9044,121.087 101.4094,119.264 102.5854,117.275 C103.3394,118.677 104.2004,120.007 105.2264,121.237 C109.3964,126.314 115.5134,129.097 122.4244,129.097 C129.3284,129.097 135.4334,126.3 139.6114,121.237 C141.0134,119.557 142.1464,117.69 143.0204,115.681 C143.9054,117.669 145.0064,119.557 146.4124,121.237 C150.5854,126.3 156.6914,129.097 163.6084,129.097 C170.5424,129.097 176.6384,126.3 180.8224,121.219 C181.9874,119.821 182.8784,118.291 183.6964,116.656 C184.4764,118.291 185.4064,119.821 186.5574,121.219 C190.7374,126.3 196.8544,129.097 203.7514,129.097 C210.6634,129.097 216.7854,126.3 220.9614,121.237 C224.0074,117.519 225.8314,113.017 226.3254,108.058 C227.2544,109.866 228.2814,111.615 229.4464,113.288 C230.6514,115.02 232.0534,116.625 233.5334,118.177 C227.1724,121.999 222.8274,129.254 222.8274,136.866 C222.8274,148.544 232.2754,158.405 243.4514,158.405 L263.0754,158.405 C277.0124,158.405 288.3474,154.583 296.8074,147.053 C307.1414,137.77 310.8414,121.502 310.8414,109.366 L310.8414,58.778 C310.8414,52.787 308.9364,47.342 305.3534,42.997 L305.3534,42.997 Z" id="Fill-20" fill="#B8B8B8"></path>
                        <path d="M305.3533,42.997 C301.1633,37.913 295.0553,35.104 288.1473,35.104 C284.4573,35.104 281.0533,35.893 277.9633,37.403 C273.6303,35.438 268.7433,34.398 263.3613,34.398 C250.2093,34.398 238.9823,39.924 230.9373,50.408 L230.8943,50.442 C228.4923,53.572 226.5213,56.919 224.9693,60.452 C223.2923,54.398 220.1743,49.121 215.6763,44.728 C208.6113,37.888 199.4303,34.398 188.4243,34.398 C182.8783,34.398 177.8463,35.365 173.4063,37.174 C170.4423,35.831 167.1563,35.104 163.6293,35.104 C156.7143,35.104 150.5853,37.913 146.4123,42.997 C144.9763,44.705 143.8043,46.644 142.9433,48.695 C142.6113,47.992 142.2923,47.288 141.8913,46.601 C144.2683,42.928 145.5803,38.803 145.5803,34.439 C145.5803,28.271 143.2913,22.727 138.9513,18.388 C134.6013,14.053 129.0313,11.752 122.8923,11.752 C116.7263,11.752 111.1643,14.053 106.8223,18.388 L106.8063,18.415 C104.1673,21.025 102.3003,24.114 101.2583,27.509 C99.8303,24.238 97.6563,21.373 94.7563,19.135 C90.3763,15.769 84.9063,13.994 78.9343,13.994 L34.4303,13.994 C28.4753,13.994 23.0643,16.15 18.7953,20.219 C14.3353,24.468 11.9843,29.998 11.9843,36.239 C11.9843,42.75 14.5923,48.536 19.3383,52.585 C23.4723,56.103 28.7093,57.959 34.4303,57.959 L39.1343,57.959 C34.2193,64.814 15.7223,90.634 15.7223,90.634 C14.6603,92.188 13.7593,93.726 13.0663,95.271 C13.0603,95.313 13.0073,95.464 13.0073,95.464 C11.5333,98.907 10.7573,102.351 10.7573,105.701 C10.7573,112.795 13.7593,119.023 19.1843,123.196 C23.5593,126.594 29.0193,128.399 34.9373,128.399 L82.8213,128.399 C88.4923,128.399 93.7633,126.414 98.0643,122.639 C99.9043,121.087 101.4093,119.264 102.5853,117.275 C103.3393,118.677 104.2003,120.007 105.2263,121.237 C109.3963,126.314 115.5133,129.097 122.4243,129.097 C129.3283,129.097 135.4343,126.3 139.6113,121.237 C141.0133,119.557 142.1463,117.69 143.0203,115.681 C143.9053,117.669 145.0063,119.557 146.4123,121.237 C150.5853,126.3 156.6913,129.097 163.6083,129.097 C170.5423,129.097 176.6383,126.3 180.8223,121.219 C181.9873,119.821 182.8783,118.291 183.6963,116.656 C184.4763,118.291 185.4063,119.821 186.5583,121.219 C190.7373,126.3 196.8543,129.097 203.7513,129.097 C210.6643,129.097 216.7853,126.3 220.9613,121.237 C224.0073,117.518 225.8323,113.017 226.3253,108.058 C227.2543,109.866 228.2813,111.615 229.4463,113.288 C230.6513,115.019 232.0533,116.625 233.5333,118.177 C227.1723,121.999 222.8283,129.254 222.8283,136.866 C222.8283,148.544 232.2753,158.405 243.4523,158.405 L263.0753,158.405 C277.0123,158.405 288.3473,154.583 296.8073,147.053 C307.1413,137.77 310.8413,121.502 310.8413,109.366 L310.8413,58.778 C310.8413,52.787 308.9363,47.342 305.3533,42.997 M122.8923,4.979 C130.7553,4.979 138.1483,8.04 143.7443,13.602 C147.6883,17.551 150.4083,22.502 151.6143,27.897 L151.7023,28.314 C151.8423,28.855 152.1813,29.315 152.6493,29.594 C153.1503,29.868 153.7213,29.957 154.2373,29.79 L154.6543,29.669 C157.5193,28.793 160.5373,28.341 163.6293,28.341 C166.6703,28.341 169.7243,28.811 172.7203,29.706 C172.6983,29.706 172.8093,29.742 172.8093,29.742 C173.2133,29.868 173.6203,29.868 174.0133,29.741 L174.1213,29.685 C178.5413,28.337 183.3753,27.629 188.4243,27.629 C201.0743,27.629 212.1443,31.865 220.4113,39.876 C221.5803,41.045 222.7783,42.347 223.9153,43.752 L224.2013,44.12 C224.5803,44.586 225.1233,44.876 225.7093,44.885 C226.2963,44.893 226.8543,44.635 227.2543,44.186 L227.5763,43.823 C236.6793,33.379 249.3953,27.629 263.3613,27.629 C268.2063,27.629 272.8863,28.382 277.2423,29.812 L277.3453,29.868 C277.7463,29.987 278.1713,29.987 278.5933,29.868 L278.7293,29.819 C281.8153,28.852 284.9723,28.341 288.1473,28.341 C297.1293,28.341 305.0823,32.02 310.5703,38.671 C315.1933,44.258 317.6103,51.207 317.6103,58.778 L317.6103,109.366 C317.6103,115.956 316.4303,138.521 301.3273,152.105 C291.5733,160.762 278.7143,165.174 263.0753,165.174 L243.4523,165.174 C228.5883,165.174 216.0443,152.205 216.0443,136.866 L216.0443,136.233 C216.0443,135.579 215.7413,135.011 215.2263,134.631 C214.7183,134.26 214.0573,134.124 213.4463,134.346 L212.9243,134.484 C210.0133,135.418 206.9093,135.872 203.7513,135.872 C196.7763,135.872 190.3693,133.627 185.2163,129.39 L184.9263,129.16 C184.2043,128.567 183.1493,128.567 182.4093,129.16 L182.1743,129.39 C177.0103,133.627 170.6103,135.872 163.6083,135.872 C156.3653,135.872 149.7713,133.512 144.5743,129.011 L144.3003,128.796 C143.5503,128.152 142.4413,128.152 141.7083,128.796 L141.4553,129.011 C136.2443,133.512 129.6623,135.872 122.4243,135.872 C115.3273,135.872 108.8423,133.587 103.7033,129.293 C103.6853,129.293 103.4553,129.082 103.4553,129.082 C102.7503,128.481 101.7133,128.453 100.9713,129.011 L100.7333,129.222 C95.5313,133.104 89.3383,135.171 82.8213,135.171 L34.9373,135.171 C27.4963,135.171 20.6203,132.893 15.0593,128.57 C8.0153,123.143 3.9923,114.815 3.9923,105.701 C3.9923,101.414 4.9433,97.062 6.7823,92.743 L6.9143,92.489 C7.7593,90.587 8.8463,88.67 10.1433,86.804 C10.1433,86.818 25.0323,66.044 25.0323,66.044 C25.3963,65.536 25.4883,64.896 25.3093,64.285 C25.1293,63.698 24.6853,63.233 24.1023,63.019 L23.6133,62.84 C20.4253,61.643 17.5173,59.922 14.9533,57.748 C8.6673,52.405 5.2003,44.755 5.2003,36.239 C5.2003,28.216 8.3733,20.805 14.1093,15.326 C19.6813,10.016 26.6973,7.22 34.4303,7.22 L78.9343,7.22 C86.3963,7.22 93.3143,9.476 98.8923,13.775 L99.1923,13.994 C99.9763,14.596 101.1033,14.534 101.8053,13.82 L102.0563,13.572 C107.6073,8.008 115.0093,4.979 122.8923,4.979" id="Fill-22" fill="#FEFEFE"></path>
                    </g>
                    <g id="Group-12" transform="translate(326.000000, 24.000000)" fill="#7C7C7C" fill-rule="nonzero">
                        <path d="M9.67236328,91.7265625 C10.7924805,91.7265625 11.7158203,91.3632812 12.4423828,90.6367188 C13.1992188,89.8798828 13.5776367,88.7900391 13.5776367,87.3671875 L13.5776367,87.3671875 L13.5776367,60.1210938 C13.5776367,57.5478516 14.1376953,55.3833008 15.2578125,53.6274414 C16.2871094,51.7202148 17.6796875,50.3579102 19.4355469,49.5405273 C21.1914062,48.6020508 23.0834961,48.1328125 25.1118164,48.1328125 C28.2602539,48.1328125 30.9545898,49.1923828 33.1948242,51.3115234 C35.4350586,53.3701172 36.5551758,56.2460938 36.5551758,59.9394531 L36.5551758,59.9394531 L36.5551758,87.3671875 C36.5551758,88.6386719 36.9487305,89.6074219 37.7358398,90.2734375 C38.5229492,91 39.4614258,91.3632812 40.5512695,91.3632812 C41.7016602,91.3632812 42.6552734,91.0302734 43.4121094,90.3642578 C44.2294922,89.6376953 44.6381836,88.6386719 44.6381836,87.3671875 L44.6381836,87.3671875 L44.6381836,59.7578125 C44.6381836,55.7314453 43.8359375,52.25 42.2314453,49.3134766 C40.6269531,46.4375 38.4775391,44.3032227 35.7832031,42.9106445 C33.2705078,41.5483398 30.4248047,40.8671875 27.2460938,40.8671875 C24.4912109,40.8671875 21.9785156,41.4272461 19.7080078,42.5473633 C17.2255859,43.7583008 15.2426758,45.362793 13.7592773,47.3608398 L13.7592773,47.3608398 L13.5776367,47.1791992 L13.5776367,45.2265625 C13.5776367,43.8642578 13.1689453,42.7895508 12.3515625,42.0024414 C11.625,41.2456055 10.6713867,40.8671875 9.49072266,40.8671875 C8.37060547,40.8671875 7.42456055,41.2531738 6.65258789,42.0251465 C5.88061523,42.7971191 5.49462891,43.8642578 5.49462891,45.2265625 L5.49462891,45.2265625 L5.49462891,87.3671875 C5.49462891,88.6083984 5.93359375,89.6679688 6.81152344,90.5458984 C7.59863281,91.3330078 8.55224609,91.7265625 9.67236328,91.7265625 Z M70.8813477,91.5449219 C74.6958008,91.5449219 78.2983398,90.8334961 81.6889648,89.4106445 C85.2006836,87.8364258 87.7739258,86.1411133 89.4086914,84.324707 C90.1958008,83.4165039 90.5893555,82.4174805 90.5893555,81.3276367 C90.5893555,80.3891602 90.347168,79.5869141 89.862793,78.9208984 C89.4086914,78.2246094 88.6972656,77.8764648 87.7285156,77.8764648 C87.0019531,77.8764648 85.9726562,78.3759766 84.640625,79.375 C80.6748047,82.7958984 76.2397461,84.5063477 71.3354492,84.5063477 C68.6108398,84.5063477 66.0981445,83.9462891 63.7973633,82.8261719 C61.4663086,81.6757812 59.6801758,79.965332 58.4389648,77.6948242 C57.0766602,75.5454102 56.3500977,72.7905273 56.2592773,69.4301758 L56.2592773,69.4301758 L87.1381836,69.4301758 C90.1958008,69.4301758 91.7246094,68.0981445 91.7246094,65.434082 C91.7246094,61.4077148 90.8164062,57.4418945 89,53.5366211 C87.2138672,49.722168 84.640625,46.6494141 81.2802734,44.3183594 C78.0712891,42.0175781 74.2871094,40.8671875 69.9277344,40.8671875 C65.5683594,40.9580078 61.769043,42.1689453 58.5297852,44.5 C55.2905273,46.8007812 52.777832,49.8735352 50.9916992,53.7182617 C49.2358398,57.5024414 48.2670898,61.5288086 48.0854492,65.7973633 L48.0854492,65.7973633 L48.0854492,65.8881836 C48.0854492,65.8881836 48.054558,65.9499661 47.9927754,66.0735312 L47.9038086,66.2514648 C47.9946289,69.5209961 48.4335938,72.4726562 49.2207031,75.1064453 C50.0380859,77.9521484 51.3701172,80.6767578 53.2167969,83.2802734 C54.9423828,85.7324219 57.3339844,87.715332 60.3916016,89.2290039 C63.2675781,90.7729492 66.7641602,91.5449219 70.8813477,91.5449219 Z M83.5053711,63.2089844 L56.2592773,63.2089844 C56.4711914,58.3652344 57.8486328,54.6113281 60.3916016,51.9472656 C62.84375,49.2832031 66.1586914,47.9511719 70.3364258,47.9511719 C74.3022461,48.0419922 77.4960938,49.4648438 79.9179688,52.2197266 C82.21875,54.9746094 83.4145508,58.6376953 83.5053711,63.2089844 L83.5053711,63.2089844 Z M140.08252,91.5449219 C142.141113,91.5449219 143.654785,90.2128906 144.623535,87.5488281 L144.623535,87.5488281 L158.564453,46.815918 C158.836914,45.9985352 158.973145,45.3476562 158.973145,44.8632812 C158.973145,43.6523438 158.594727,42.668457 157.837891,41.9116211 C157.081055,41.215332 156.187988,40.8671875 155.158691,40.8671875 C152.918457,40.8671875 151.450195,42.078125 150.753906,44.5 L150.753906,44.5 L140.08252,78.8300781 L139.900879,78.8300781 L128.820801,44.3183594 C128.094238,41.7753906 126.70166,40.5039062 124.643066,40.5039062 C123.825684,40.5039062 122.993164,40.8369141 122.145508,41.5029297 C121.388672,42.1689453 120.828613,43.1074219 120.465332,44.3183594 L120.465332,44.3183594 L109.566895,79.0117188 L109.385254,78.8300781 L98.4868164,43.9550781 C97.9418945,42.0175781 96.4887695,41.0488281 94.1274414,41.0488281 C93.0375977,41.0488281 92.1142578,41.3969727 91.3574219,42.0932617 C90.5400391,42.6987305 90.1313477,43.5615234 90.1313477,44.6816406 C90.1313477,44.6513672 90.1918945,44.9389648 90.3129883,45.5444336 C90.434082,46.1499023 90.4946289,46.4526367 90.4946289,46.4526367 L90.4946289,46.4526367 L104.253906,86.640625 C104.919922,88.4267578 105.631348,89.7285156 106.388184,90.5458984 C107.114746,91.2119141 108.053223,91.5449219 109.203613,91.5449219 C110.414551,91.5449219 111.428711,91.1816406 112.246094,90.4550781 C112.972656,89.8193359 113.653809,88.4267578 114.289551,86.2773438 L114.289551,86.2773438 L124.643066,53.9907227 L124.824707,53.9907227 L135.314453,87.0039062 C135.859375,88.6689453 136.510254,89.8496094 137.26709,90.5458984 C137.993652,91.2119141 138.932129,91.5449219 140.08252,91.5449219 Z M175.543945,91.5449219 C179.661133,91.4541016 183.006348,90.7426758 185.57959,89.4106445 C188.304199,87.987793 190.347656,86.2167969 191.709961,84.0976562 C193.041992,82.0996094 193.753418,79.753418 193.844238,77.059082 C193.844238,74.1225586 193.041992,71.6704102 191.4375,69.7026367 C189.833008,67.7348633 187.199219,65.9941406 183.536133,64.4804688 C182.658203,64.1171875 181.159668,63.5571289 179.040527,62.800293 C176.86084,62.043457 175.044434,61.3320312 173.591309,60.6660156 C172.229004,60.1210938 170.851562,59.2583008 169.458984,58.0776367 C168.369141,57.0180664 167.657715,55.7163086 167.324707,54.1723633 C167.415527,52.4165039 168.23291,50.9331055 169.776855,49.722168 C171.169434,48.5415039 173.364258,47.9511719 176.361328,47.9511719 C177.905273,48.0419922 179.085938,48.2841797 179.90332,48.6777344 C181.326172,49.3740234 182.80957,50.1762695 184.353516,51.0844727 C185.958008,52.0834961 187.486816,52.8100586 188.939941,53.2641602 C189.938965,53.112793 190.801758,52.7041016 191.52832,52.0380859 C192.194336,51.3720703 192.527344,50.5698242 192.527344,49.6313477 C192.527344,48.3598633 191.876465,47.0883789 190.574707,45.8168945 C189.151855,44.4545898 187.078125,43.3041992 184.353516,42.3657227 C181.628906,41.3666992 178.692383,40.8671875 175.543945,40.8671875 C172.637695,40.9580078 169.807129,41.6391602 167.052246,42.9106445 C164.721191,44.0913086 162.829102,45.7412109 161.375977,47.8603516 C160.013672,50.0097656 159.33252,52.2651367 159.33252,54.6264648 C159.33252,57.2299805 160.074219,59.4399414 161.557617,61.2563477 C162.798828,62.8305664 164.44873,64.1928711 166.507324,65.3432617 C168.747559,66.3725586 171.411621,67.5229492 174.499512,68.7944336 C177.859863,70.1264648 180.251465,71.2314453 181.674316,72.109375 C184.217285,73.6230469 185.48877,75.4848633 185.48877,77.6948242 C185.48877,80.0561523 184.459473,81.7666016 182.400879,82.8261719 C180.312012,83.9462891 177.96582,84.5063477 175.362305,84.5063477 C172.758789,84.324707 170.458008,83.7041016 168.459961,82.6445312 C167.460938,82.0390625 166.628418,81.5092773 165.962402,81.0551758 C164.569824,80.0561523 163.601074,79.4052734 163.056152,79.1025391 C162.299316,78.6787109 161.49707,78.4667969 160.649414,78.4667969 C159.650391,78.4667969 158.817871,78.7998047 158.151855,79.4658203 C157.455566,80.2226562 157.107422,81.0854492 157.107422,82.0541992 C157.379883,83.9008789 158.121582,85.2329102 159.33252,86.050293 C163.631348,89.7133789 169.035156,91.5449219 175.543945,91.5449219 Z" id="news"></path>
                    </g>
                </g>
            </g>
        </g>
    </g>
</svg>